# xmcd
#
# Track frame offsets: 
#        150
#        11640
#        23140
#        36993
#        48495
#        60695
#        77335
#        92495
#        107093
#        121003
#        133143
#        149050
#        167725
#        185208
#        201145
#        213650
#        226580
#        254055
#        272830
#
# Disc length: 3810 seconds
#
# Revision: 0
# Processed by: cddbd v1.5.2PL0 Copyright (c) Steve Scherf et al.
# Submitted via: ExactAudioCopyFreeDBPlugin 1.0
#
DISCID=150ee013
DTITLE=gospei love songs - gospei love songs 1
DYEAR=2003
DGENRE=Gospel
TTITLE0=不明なアーティスト - 不明なタイトル
TTITLE1=01. ラプソディ・イン・ブルー／レナード・バーンスタイン  05:28
TTITLE2=02. トラック02  03:39
TTITLE3=03. トラック03  02:41
TTITLE4=04. トラック04  05:35
TTITLE5=05. トラック05  04:53
TTITLE6=06. トラック06  03:48
TTITLE7=07. トラック07  04:41
TTITLE8=08. トラック08  02:42
TTITLE9=09. トラック09  03:51
TTITLE10=10. トラック10  03:12
TTITLE11=11. トラック11  04:15
TTITLE12=12. トラック12  03:27
TTITLE13=13. トラック13  07:13
TTITLE14=14. トラック14  04:24
TTITLE15=15. トラック15  03:24
TTITLE16=16. トラック16  04:23
TTITLE17=17. トラック17  03:22
TTITLE18=18. トラック18  02:28
EXTD=
EXTT0=
EXTT1=
EXTT2=
EXTT3=
EXTT4=
EXTT5=
EXTT6=
EXTT7=
EXTT8=
EXTT9=
EXTT10=
EXTT11=
EXTT12=
EXTT13=
EXTT14=
EXTT15=
EXTT16=
EXTT17=
EXTT18=
PLAYORDER=
